<?xml version="1.0" encoding="UTF-8"?> <svg xmlns="http://www.w3.org/2000/svg" width="24" height="24" viewBox="0 0 24 24" fill="none"><rect x="2.5" y="2.5" width="19" height="19" rx="2" fill="#0077B5"></rect><path fill-rule="evenodd" clip-rule="evenodd" d="M8.37505 6.6878C8.37505 5.753 7.61323 4.99438 6.67681 4.99438C5.73624 4.99438 4.97754 5.753 4.97754 6.6878C4.97754 7.62364 5.73624 8.38226 6.67681 8.38226C7.61323 8.38226 8.37505 7.62364 8.37505 6.6878ZM15.5981 9.43272C18.5643 9.43272 19.112 11.378 19.112 13.9088V19.0626H16.1832L16.1823 14.2466C16.1723 13.2031 16.0532 12.0019 14.6616 12.0019C13.137 12.0019 12.9042 13.1895 12.9042 14.4156V19.0626H9.97954V9.6659H12.7867V10.95H12.8273C13.217 10.211 14.1732 9.43272 15.5981 9.43272ZM8.14266 9.666V19.0627H5.21076V9.666H8.14266Z" fill="white"></path></svg> 