<?xml version="1.0" encoding="UTF-8"?> <svg xmlns="http://www.w3.org/2000/svg" width="24" height="24" viewBox="0 0 24 24" fill="none"><path d="M22.0609 6.46694C21.8199 5.54516 21.1076 4.81935 20.2043 4.57258C18.5673 4.125 12 4.125 12 4.125C12 4.125 5.43273 4.125 3.79568 4.57258C2.89244 4.81935 2.18011 5.54516 1.93909 6.46694C1.5 8.13871 1.5 11.625 1.5 11.625C1.5 11.625 1.5 15.1113 1.93909 16.7831C2.18011 17.7048 2.89244 18.4306 3.79568 18.6774C5.43273 19.125 12 19.125 12 19.125C12 19.125 18.5673 19.125 20.2043 18.6774C21.1076 18.4306 21.8199 17.7048 22.0609 16.7831C22.5 15.1113 22.5 11.625 22.5 11.625C22.5 11.625 22.5 8.13871 22.0609 6.46694ZM9.85227 14.7907V8.45927L15.3409 11.625L9.85227 14.7907Z" fill="#FF0000"></path></svg> 